<?xml version="1.0" encoding="utf-8"?>
<!-- Generator: Adobe Illustrator 24.0.1, SVG Export Plug-In . SVG Version: 6.00 Build 0)  -->
<svg version="1.1" xmlns="http://www.w3.org/2000/svg" xmlns:xlink="http://www.w3.org/1999/xlink" x="0px" y="0px"
	 viewBox="0 0 74.4 74.4" style="enable-background:new 0 0 74.4 74.4;" xml:space="preserve">
<style type="text/css">
	.st0{fill:#FFFFFF;}
	.st1{opacity:0.4;}
</style>
<g id="Skizzen">
</g>
<g id="Ebene_2">
	<g>
		<path class="st0" d="M14.7,0H7.9C5.7,0,3.8,0.9,2.3,2.3C0.9,3.8,0,5.7,0,7.9v6.8c0,1.6,0.2,3,1.9,3h1.7c1.6,0,1.9-1.3,1.9-3l0.1-4
			c0-3.6,2.9-5.3,6.5-5.3h2.8c1.6,0,3-0.2,3-1.9V1.9C17.7,0.2,16.4,0,14.7,0z"/>
		<path class="st0" d="M14.7,74.4H7.9c-2.2,0-4.1-0.9-5.6-2.3C0.9,70.6,0,68.7,0,66.5v-6.8c0-1.6,0.2-3,1.9-3h1.7
			c1.6,0,1.9,1.3,1.9,3l0.1,4c0,3.6,2.9,5.3,6.5,5.3h2.8c1.6,0,3,0.2,3,1.9v1.7C17.7,74.2,16.4,74.4,14.7,74.4z"/>
		<path class="st0" d="M59.6,0l6.8,0c2.2,0,4.1,0.9,5.6,2.3c1.4,1.4,2.3,3.4,2.3,5.6v6.8c0,1.6-0.2,3-1.9,3h-1.7
			c-1.6,0-1.9-1.3-1.9-3l-0.1-4c0-3.6-2.9-5.3-6.5-5.3h-2.8c-1.6,0-3-0.2-3-1.9V1.9C56.7,0.2,58,0,59.6,0z"/>
		<path class="st0" d="M59.6,74.4h6.8c2.2,0,4.1-0.9,5.6-2.3c1.4-1.4,2.3-3.4,2.3-5.6v-6.8c0-1.6-0.2-3-1.9-3h-1.7
			c-1.6,0-1.9,1.3-1.9,3l-0.1,4c0,3.6-2.9,5.3-6.5,5.3h-2.8c-1.6,0-3,0.2-3,1.9v1.7C56.7,74.2,58,74.4,59.6,74.4z"/>
	</g>
</g>
<g id="Ebene_3" class="st1">
</g>
</svg>
