<?xml version="1.0" encoding="utf-8"?>
<!-- Generator: Adobe Illustrator 24.0.1, SVG Export Plug-In . SVG Version: 6.00 Build 0)  -->
<svg version="1.1" xmlns="http://www.w3.org/2000/svg" xmlns:xlink="http://www.w3.org/1999/xlink" x="0px" y="0px"
	 viewBox="0 0 645.5 355.4" style="enable-background:new 0 0 645.5 355.4;" xml:space="preserve">
<style type="text/css">
	.st0{fill:#E2E200;}
	.st1{fill:#101921;}
	.st2{fill:#FFFFFF;}
	.st3{opacity:0.53;}
	.st4{fill:#C4007A;}
	.st5{opacity:0.4;}
</style>
<g id="Skizzen">
</g>
<g id="Ebene_2">
	<g>
		<path d="M87.3,197.1c-3.7,0-7.3-0.7-10.1-2l-0.1-0.1c-1.3-2.1-1.7-5.3-1.4-7.4l0.4-0.2c2.7,1.6,7.4,2.8,11.1,2.8
			c4,0,5.9-1.3,5.9-4.1c0-3-3-4-6.4-5.2c-4.6-1.6-10.2-3.5-10.2-11c0-7.1,4.6-11.2,12.7-11.2c3.4,0,6.3,0.7,8.9,2.2l0.1,0.1
			c1.1,1.8,1.7,4.8,1.4,7.1l-0.4,0.2c-2.9-1.8-6.3-2.8-9.5-2.8c-3.4,0-5.1,1.1-5.1,3.4c0,2.7,2.9,3.7,6.2,4.9
			c4.6,1.6,10.4,3.6,10.4,11.3C101.2,193,96.4,197.1,87.3,197.1z"/>
		<path d="M110.9,196.2c-1.7,0-3.1-0.2-3.9-0.7l-0.1-0.2v-34.7l0.2-0.3c2.7-0.6,6.7-1,10.6-1c11.1,0,16.4,4.1,16.4,12.5
			c0,8.2-5.3,13.1-14.1,13.1c-1.4,0-3.7-0.1-5.1-0.3v10.6l-0.1,0.2C114,196,112.6,196.2,110.9,196.2z M114.9,177.7
			c1.1,0.2,2.7,0.3,4.1,0.3c4.6,0,6.9-1.9,6.9-5.7c0-4.1-2.4-6-7.7-6c-1.2,0-2.3,0.1-3.3,0.3V177.7z"/>
		<path d="M138.9,196l-0.3-0.3v-35.6l0.3-0.3h23.6l0.3,0.2c0.3,0.6,0.5,2,0.5,3.3c0,1.4-0.2,2.7-0.5,3.3l-0.3,0.2h-15.8v7.5h14.6
			l0.3,0.2c0.3,0.7,0.5,1.9,0.5,3.3c0,1.3-0.2,2.6-0.5,3.3l-0.3,0.2h-14.6v7.8h16.2l0.3,0.2c0.3,0.6,0.5,2,0.5,3.3
			c0,1.4-0.2,2.7-0.5,3.4l-0.3,0.2H138.9z"/>
		<path d="M181.6,196.4c-4.7,0-8.5-0.2-11.7-0.5l-0.3-0.3v-34.9l0.2-0.3c3.4-0.7,6.7-1,10.8-1c12.9,0,19.9,6.5,19.9,18.3
			C200.6,189.3,193.3,196.4,181.6,196.4z M177.8,189.1c1.2,0.1,2.5,0.2,4.1,0.2c6.8,0,10.4-3.8,10.4-11.1c0-7.6-3.9-11.6-11.3-11.6
			c-0.9,0-2,0-3.1,0.2V189.1z"/>
		<path d="M210.3,196.2c-1.7,0-3.1-0.2-3.9-0.7l-0.1-0.2v-34.7l0.2-0.2c0.8-0.4,2.2-0.7,3.9-0.7c1.8,0,3.1,0.2,3.9,0.7l0.1,0.2v34.7
			l-0.1,0.2C213.4,196,212.1,196.2,210.3,196.2z"/>
		<path d="M248.2,196.2c-2.1,0-3.7-0.2-4.7-0.5l-0.2-0.1l-10.2-18.5c-1.1-2-2.3-5.3-3-8.4v26.6l-0.1,0.2c-0.8,0.4-2,0.6-3.7,0.6
			c-1.7,0-2.9-0.2-3.7-0.6l-0.1-0.2v-34.9l0.2-0.3c1.3-0.3,3-0.5,5-0.5c2,0,3.7,0.2,5,0.5l0.2,0.1l9.7,17.6c1.1,2,2.3,5.5,3,8.5
			v-25.8l0.1-0.2c0.8-0.4,1.9-0.6,3.7-0.6c1.7,0,2.9,0.2,3.7,0.6l0.2,0.2v34.9l-0.2,0.3C251.8,196.1,250.2,196.2,248.2,196.2z"/>
		<path d="M287.1,196.2c-1.8,0-3.1-0.2-4-0.7l-0.1-0.2l-2.4-7.5h-12.2l-2.4,7.5l-0.1,0.2c-0.8,0.5-2.2,0.7-4,0.7
			c-1.8,0-3-0.2-3.9-0.7l-0.1-0.3l12.1-34.9l0.2-0.2c1.1-0.3,2.8-0.5,4.6-0.5c1.8,0,3.5,0.2,4.6,0.5l0.2,0.2l12,34.9l-0.1,0.3
			C290.4,195.9,289,196.2,287.1,196.2z M278.3,181.1l-1.8-5.5c-0.9-2.7-1.6-6-2.2-9.8c-0.5,3.3-1.4,6.9-2.3,9.9l-1.7,5.4H278.3z"/>
		<path d="M302.8,196.2c-1.8,0-3.1-0.2-3.9-0.7l-0.1-0.2v-28.2h-9.8l-0.3-0.2c-0.3-0.7-0.6-2.2-0.6-3.5c0-1.3,0.2-2.7,0.6-3.4
			l0.3-0.2h27.7l0.3,0.2c0.3,0.7,0.6,2.1,0.6,3.4c0,1.3-0.2,2.7-0.6,3.5l-0.3,0.2h-9.8v28.2l-0.1,0.2
			C305.9,196,304.5,196.2,302.8,196.2z"/>
		<path d="M326.1,196.2c-1.7,0-3.1-0.2-3.9-0.7l-0.1-0.2v-34.7l0.2-0.2c0.8-0.4,2.2-0.7,3.9-0.7c1.8,0,3.1,0.2,3.9,0.7l0.1,0.2v34.7
			l-0.1,0.2C329.2,196,327.9,196.2,326.1,196.2z"/>
		<path d="M353.7,197.1c-11.3,0-17.2-6.8-17.2-19.6c0-11.4,6.8-18.8,17.2-18.8c10.8,0,17.2,7,17.2,18.8
			C370.9,189.8,364.4,197.1,353.7,197.1z M353.7,165.8c-5.7,0-8.9,4.2-8.9,11.7c0,7.9,3.2,12.4,8.9,12.4c5.8,0,8.8-4.3,8.8-12.4
			C362.5,170.3,359.1,165.8,353.7,165.8z"/>
		<path d="M402.9,196.2c-2.1,0-3.7-0.2-4.7-0.5l-0.2-0.1l-10.2-18.5c-1.1-2-2.3-5.3-3-8.4v26.6l-0.1,0.2c-0.8,0.4-2,0.6-3.7,0.6
			c-1.7,0-2.9-0.2-3.7-0.6l-0.1-0.2v-34.9l0.2-0.3c1.3-0.3,3-0.5,5-0.5c2,0,3.7,0.2,5,0.5l0.2,0.1l9.7,17.6c1.1,2,2.3,5.5,3,8.5
			v-25.8l0.1-0.2c0.8-0.4,1.9-0.6,3.7-0.6c1.7,0,2.9,0.2,3.7,0.6l0.2,0.2v34.9l-0.2,0.3C406.5,196.1,404.9,196.2,402.9,196.2z"/>
		<path d="M110.9,215.6c1.2,1.3,1.7,3,1.7,5.2c0,0.5-0.1,1.1-0.2,1.8l-2.9,20.2h-4.9l2.8-19.9c0.1-0.6,0.2-1.2,0.2-1.7
			c0-1.3-0.3-2.2-0.8-2.7c-0.6-0.5-1.3-0.7-2.3-0.7c-1.4,0-2.7,0.7-4,2.1c-1.3,1.4-2.7,3.3-4,5.6L94,242.7h-4.9l2.8-19.9
			c0.1-0.6,0.2-1.2,0.2-1.7c0-1.3-0.3-2.2-0.8-2.7c-0.6-0.5-1.3-0.7-2.3-0.7c-1.4,0-2.7,0.7-4.1,2.2c-1.3,1.4-2.7,3.3-4,5.7
			l-2.3,17.1h-4.9l4-28.5h4.2l-0.4,5.5c1.4-2,2.9-3.5,4.3-4.5c1.5-1,3.1-1.6,4.9-1.6c1.6,0,3,0.5,4.1,1.5c1.2,1,1.9,2.4,2.1,4.3
			c1.4-1.9,2.9-3.3,4.5-4.3s3.2-1.5,4.9-1.5C108.2,213.6,109.7,214.3,110.9,215.6z"/>
		<path d="M141,216.8c1.9,2.1,2.8,5,2.8,8.6c0,2.6-0.5,5.3-1.5,8.1c-1,2.8-2.6,5.1-4.8,7c-2.2,1.9-5,2.9-8.5,2.9
			c-3.5,0-6.2-1-8.1-3.1c-1.9-2.1-2.8-5-2.8-8.6c0-2.7,0.5-5.4,1.5-8.1s2.6-5.1,4.8-7c2.2-1.9,5-2.9,8.5-2.9
			C136.4,213.6,139.1,214.7,141,216.8z M127.3,220c-1.4,1.6-2.4,3.5-3,5.7c-0.6,2.2-0.9,4.4-0.9,6.5c0,4.8,2,7.2,5.9,7.2
			c2.3,0,4.1-0.8,5.5-2.3c1.4-1.6,2.4-3.5,3-5.7c0.6-2.2,0.9-4.4,0.9-6.5c0-4.8-1.9-7.2-5.8-7.2C130.5,217.6,128.7,218.4,127.3,220z
			"/>
		<path d="M154.8,242.7l-5.7-28.5h5.3l3.9,24l10.6-24h5.4l-13.6,28.5H154.8z"/>
		<path d="M193.4,228.8c-3.2,1.6-7.8,2.7-13.6,3.4c0.1,4.7,2.2,7.1,6.2,7.1c1.3,0,2.6-0.2,3.8-0.6c1.2-0.4,2.5-1.1,3.8-2l2.1,3.3
			c-3.2,2.3-6.6,3.5-10.2,3.5c-3.5,0-6.1-1-8-3.1c-1.9-2-2.8-4.9-2.8-8.5c0-2.8,0.5-5.7,1.5-8.5c1-2.8,2.6-5.1,4.8-7
			c2.2-1.9,5-2.8,8.4-2.8c2.9,0,5.1,0.7,6.7,2.1c1.6,1.4,2.3,3.1,2.3,5.1C198.2,224.5,196.6,227.2,193.4,228.8z M189.9,226.1
			c2.1-1,3.2-2.7,3.2-5c0-0.9-0.3-1.7-0.9-2.4c-0.6-0.7-1.6-1.1-3-1.1c-2.7,0-4.8,1-6.3,3.1c-1.5,2.1-2.4,4.6-2.8,7.7
			C184.5,227.9,187.8,227.1,189.9,226.1z"/>
		<path d="M225.1,217.1l-2.4,3.1c-0.9-0.9-2-1.6-3.2-2c-1.2-0.5-2.4-0.7-3.6-0.7c-1.8,0-3.3,0.3-4.3,1c-1,0.7-1.6,1.6-1.6,2.8
			c0,1.1,0.4,1.9,1.3,2.5c0.9,0.6,2.3,1.2,4.4,1.8c2.8,0.8,4.8,1.9,6.1,3.2c1.3,1.3,1.9,3.1,1.9,5.4c0,2-0.6,3.6-1.7,5
			c-1.1,1.3-2.6,2.4-4.3,3c-1.8,0.7-3.7,1-5.8,1c-4.2,0-7.7-1.4-10.5-4.1l3-3.1c0.9,1,2.1,1.8,3.4,2.3c1.4,0.6,2.8,0.8,4.3,0.8
			c2.3,0,3.9-0.5,4.9-1.5c1-1,1.5-2,1.5-3.2c0-0.9-0.2-1.7-0.6-2.3s-1-1.1-1.8-1.5c-0.8-0.4-2-0.9-3.6-1.5c-2.7-0.9-4.6-2-5.8-3.2
			c-1.2-1.2-1.8-2.8-1.8-4.7c0-1.3,0.4-2.6,1.2-3.8c0.8-1.2,2-2.2,3.7-3c1.6-0.8,3.6-1.2,6-1.2C219.4,213.6,222.5,214.8,225.1,217.1
			z"/>
	</g>
	<g>
		<path d="M377,100.4c0-8.9,2.8-13.8,13.9-13.9c3.9,0,15.8,0,15.8,0c1.7,0,3.1-1.4,3.1-3.1v-5.2c0-1.7-1.4-3.1-3.1-3.1H382
			c-9,0-16.4,7.4-16.4,16.4v24.7c0,1.7,1.4,3.1,3.1,3.1h5.2c1.7,0,3.1-1.4,3.1-3.1C377,116.2,376.9,104.3,377,100.4z"/>
		<path d="M407.9,126.3c0-4.9,4-8.9,8.9-8.9h8.4c1.4,0,2.6-1.2,2.6-2.6v-2.3c0-1.4-1.2-2.6-2.6-2.6h-13.9
			c-6.9,0.3-10.8,4.9-10.8,10.8v13.9c0,1.4,1.2,2.6,2.6,2.6h2.3c1.4,0,2.6-1.2,2.6-2.6V126.3z"/>
		<path d="M445.7,140.5h-6.8c-2.2,0-4.1,0.9-5.6,2.3c-1.4,1.4-2.3,3.4-2.3,5.6v6.8c0,1.6,0.2,3,1.9,3h1.7c1.6,0,1.9-1.3,1.9-3l0.1-4
			c0-3.6,2.9-5.3,6.5-5.3h2.8c1.6,0,3-0.2,3-1.9v-1.7C448.7,140.7,447.4,140.5,445.7,140.5z"/>
		<path d="M377,255c0,8.9,2.8,13.8,13.9,13.9c3.9,0,15.8,0,15.8,0c1.7,0,3.1,1.4,3.1,3.1v5.2c0,1.7-1.4,3.1-3.1,3.1H382
			c-9,0-16.4-7.4-16.4-16.4v-24.7c0-1.7,1.4-3.1,3.1-3.1h5.2c1.7,0,3.1,1.4,3.1,3.1C377,239.3,376.9,251.1,377,255z"/>
		<path d="M559.5,100.4c0-8.9-2.8-13.8-13.9-13.9c-3.9,0-15.8,0-15.8,0c-1.7,0-3.1-1.4-3.1-3.1v-5.2c0-1.7,1.4-3.1,3.1-3.1h24.7
			c9,0,16.4,7.4,16.4,16.4v24.7c0,1.7-1.4,3.1-3.1,3.1h-5.2c-1.7,0-3.1-1.4-3.1-3.1C559.5,116.2,559.5,104.3,559.5,100.4z"/>
		<path d="M559.5,255c0,8.9-2.8,13.8-13.9,13.9c-3.9,0-15.8,0-15.8,0c-1.7,0-3.1,1.4-3.1,3.1v5.2c0,1.7,1.4,3.1,3.1,3.1h24.7
			c9,0,16.4-7.4,16.4-16.4v-24.7c0-1.7-1.4-3.1-3.1-3.1h-5.2c-1.7,0-3.1,1.4-3.1,3.1C559.5,239.3,559.5,251.1,559.5,255z"/>
		<path d="M407.9,228.7c0,4.9,4,8.9,8.9,8.9h8.4c1.4,0,2.6,1.2,2.6,2.6v2.3c0,1.4-1.2,2.6-2.6,2.6h-13.9
			c-6.9-0.3-10.8-4.9-10.8-10.8v-13.9c0-1.4,1.2-2.6,2.6-2.6h2.3c1.4,0,2.6,1.2,2.6,2.6V228.7z"/>
		<path d="M528,126.3c0-4.9-4-8.9-8.9-8.9h-8.4c-1.4,0-2.6-1.2-2.6-2.6v-2.3c0-1.4,1.2-2.6,2.6-2.6h13.9c6.9,0.3,10.8,4.9,10.8,10.8
			v13.9c0,1.4-1.2,2.6-2.6,2.6h-2.3c-1.4,0-2.6-1.2-2.6-2.6V126.3z"/>
		<path d="M528,228.7c0,4.9-4,8.9-8.9,8.9h-8.4c-1.4,0-2.6,1.2-2.6,2.6v2.3c0,1.4,1.2,2.6,2.6,2.6h13.9c6.9-0.3,10.8-4.9,10.8-10.8
			v-13.9c0-1.4-1.2-2.6-2.6-2.6h-2.3c-1.4,0-2.6,1.2-2.6,2.6V228.7z"/>
		<path d="M445.7,214.9h-6.8c-2.2,0-4.1-0.9-5.6-2.3c-1.4-1.4-2.3-3.4-2.3-5.6v-6.8c0-1.6,0.2-3,1.9-3h1.7c1.6,0,1.9,1.3,1.9,3
			l0.1,4c0,3.6,2.9,5.3,6.5,5.3h2.8c1.6,0,3,0.2,3,1.9v1.7C448.7,214.6,447.4,214.9,445.7,214.9z"/>
		<path d="M490.6,140.5h6.8c2.2,0,4.1,0.9,5.6,2.3c1.4,1.4,2.3,3.4,2.3,5.6v6.8c0,1.6-0.2,3-1.9,3h-1.7c-1.6,0-1.9-1.3-1.9-3l-0.1-4
			c0-3.6-2.9-5.3-6.5-5.3h-2.8c-1.6,0-3-0.2-3-1.9v-1.7C487.7,140.7,489,140.5,490.6,140.5z"/>
		<path d="M490.6,214.9h6.8c2.2,0,4.1-0.9,5.6-2.3c1.4-1.4,2.3-3.4,2.3-5.6v-6.8c0-1.6-0.2-3-1.9-3h-1.7c-1.6,0-1.9,1.3-1.9,3
			l-0.1,4c0,3.6-2.9,5.3-6.5,5.3h-2.8c-1.6,0-3,0.2-3,1.9v1.7C487.7,214.6,489,214.9,490.6,214.9z"/>
	</g>
</g>
<g id="Ebene_3" class="st5">
</g>
</svg>
