<?xml version="1.0" encoding="utf-8"?>
<!-- Generator: Adobe Illustrator 24.0.1, SVG Export Plug-In . SVG Version: 6.00 Build 0)  -->
<svg version="1.1" xmlns="http://www.w3.org/2000/svg" xmlns:xlink="http://www.w3.org/1999/xlink" x="0px" y="0px"
	 viewBox="0 0 354.8 355" style="enable-background:new 0 0 354.8 355;" xml:space="preserve">
<style type="text/css">
	.st0{fill:#E2E200;}
	.st1{fill:#101921;}
	.st2{fill:#FFFFFF;}
	.st3{opacity:0.53;}
	.st4{fill:#C4007A;}
	.st5{opacity:0.4;}
</style>
<g id="Skizzen">
</g>
<g id="Ebene_2">
	<g>
		<path class="st1" d="M86.2,100.2c0-8.9,2.8-13.8,13.9-13.9c3.9,0,15.8,0,15.8,0c1.7,0,3.1-1.4,3.1-3.1V78c0-1.7-1.4-3.1-3.1-3.1
			H91.2c-9,0-16.4,7.4-16.4,16.4v24.7c0,1.7,1.4,3.1,3.1,3.1h5.2c1.7,0,3.1-1.4,3.1-3.1C86.2,115.9,86.2,104.1,86.2,100.2z"/>
		<path class="st1" d="M117.1,126c0-4.9,4-8.9,8.9-8.9h8.4c1.4,0,2.6-1.2,2.6-2.6v-2.3c0-1.4-1.2-2.6-2.6-2.6h-13.9
			c-6.9,0.3-10.8,4.9-10.8,10.8v13.9c0,1.4,1.2,2.6,2.6,2.6h2.3c1.4,0,2.6-1.2,2.6-2.6V126z"/>
		<path class="st1" d="M154.9,140.3h-6.8c-2.2,0-4.1,0.9-5.6,2.3c-1.4,1.4-2.3,3.4-2.3,5.6v6.8c0,1.6,0.2,3,1.9,3h1.7
			c1.6,0,1.9-1.3,1.9-3l0.1-4c0-3.6,2.9-5.3,6.5-5.3h2.8c1.6,0,3-0.2,3-1.9v-1.7C157.9,140.5,156.6,140.3,154.9,140.3z"/>
		<path class="st1" d="M86.2,254.8c0,8.9,2.8,13.8,13.9,13.9c3.9,0,15.8,0,15.8,0c1.7,0,3.1,1.4,3.1,3.1v5.2c0,1.7-1.4,3.1-3.1,3.1
			H91.2c-9,0-16.4-7.4-16.4-16.4v-24.7c0-1.7,1.4-3.1,3.1-3.1h5.2c1.7,0,3.1,1.4,3.1,3.1C86.2,239.1,86.2,250.9,86.2,254.8z"/>
		<path class="st1" d="M268.7,100.2c0-8.9-2.8-13.8-13.9-13.9c-3.9,0-15.8,0-15.8,0c-1.7,0-3.1-1.4-3.1-3.1V78
			c0-1.7,1.4-3.1,3.1-3.1h24.7c9,0,16.4,7.4,16.4,16.4v24.7c0,1.7-1.4,3.1-3.1,3.1h-5.2c-1.7,0-3.1-1.4-3.1-3.1
			C268.7,115.9,268.7,104.1,268.7,100.2z"/>
		<path class="st1" d="M268.7,254.8c0,8.9-2.8,13.8-13.9,13.9c-3.9,0-15.8,0-15.8,0c-1.7,0-3.1,1.4-3.1,3.1v5.2
			c0,1.7,1.4,3.1,3.1,3.1h24.7c9,0,16.4-7.4,16.4-16.4v-24.7c0-1.7-1.4-3.1-3.1-3.1h-5.2c-1.7,0-3.1,1.4-3.1,3.1
			C268.7,239.1,268.7,250.9,268.7,254.8z"/>
		<path class="st1" d="M117.1,228.4c0,4.9,4,8.9,8.9,8.9h8.4c1.4,0,2.6,1.2,2.6,2.6v2.3c0,1.4-1.2,2.6-2.6,2.6h-13.9
			c-6.9-0.3-10.8-4.9-10.8-10.8V220c0-1.4,1.2-2.6,2.6-2.6h2.3c1.4,0,2.6,1.2,2.6,2.6V228.4z"/>
		<path class="st1" d="M237.3,126c0-4.9-4-8.9-8.9-8.9H220c-1.4,0-2.6-1.2-2.6-2.6v-2.3c0-1.4,1.2-2.6,2.6-2.6h13.9
			c6.9,0.3,10.8,4.9,10.8,10.8v13.9c0,1.4-1.2,2.6-2.6,2.6h-2.3c-1.4,0-2.6-1.2-2.6-2.6V126z"/>
		<path class="st1" d="M237.3,228.4c0,4.9-4,8.9-8.9,8.9H220c-1.4,0-2.6,1.2-2.6,2.6v2.3c0,1.4,1.2,2.6,2.6,2.6h13.9
			c6.9-0.3,10.8-4.9,10.8-10.8V220c0-1.4-1.2-2.6-2.6-2.6h-2.3c-1.4,0-2.6,1.2-2.6,2.6V228.4z"/>
		<path class="st1" d="M154.9,214.7h-6.8c-2.2,0-4.1-0.9-5.6-2.3c-1.4-1.4-2.3-3.4-2.3-5.6v-6.8c0-1.6,0.2-3,1.9-3h1.7
			c1.6,0,1.9,1.3,1.9,3l0.1,4c0,3.6,2.9,5.3,6.5,5.3h2.8c1.6,0,3,0.2,3,1.9v1.7C157.9,214.4,156.6,214.7,154.9,214.7z"/>
		<path class="st1" d="M199.8,140.3h6.8c2.2,0,4.1,0.9,5.6,2.3c1.4,1.4,2.3,3.4,2.3,5.6v6.8c0,1.6-0.2,3-1.9,3H211
			c-1.6,0-1.9-1.3-1.9-3l-0.1-4c0-3.6-2.9-5.3-6.5-5.3h-2.8c-1.6,0-3-0.2-3-1.9v-1.7C196.9,140.5,198.2,140.3,199.8,140.3z"/>
		<path class="st1" d="M199.8,214.7h6.8c2.2,0,4.1-0.9,5.6-2.3c1.4-1.4,2.3-3.4,2.3-5.6v-6.8c0-1.6-0.2-3-1.9-3H211
			c-1.6,0-1.9,1.3-1.9,3l-0.1,4c0,3.6-2.9,5.3-6.5,5.3h-2.8c-1.6,0-3,0.2-3,1.9v1.7C196.9,214.4,198.2,214.7,199.8,214.7z"/>
	</g>
</g>
<g id="Ebene_3" class="st5">
</g>
</svg>
